<svg width="24" height="24" viewBox="0 0 24 24" fill="none" xmlns="http://www.w3.org/2000/svg">
<path d="M5.25 7.50098H6.75H18.75" stroke="#8F90A6" stroke-linecap="round" stroke-linejoin="round"/>
<path d="M9 7.50098V6.00098C9 5.60315 9.15804 5.22162 9.43934 4.94032C9.72064 4.65901 10.1022 4.50098 10.5 4.50098H13.5C13.8978 4.50098 14.2794 4.65901 14.5607 4.94032C14.842 5.22162 15 5.60315 15 6.00098V7.50098M17.25 7.50098V18.001C17.25 18.3988 17.092 18.7803 16.8107 19.0616C16.5294 19.3429 16.1478 19.501 15.75 19.501H8.25C7.85218 19.501 7.47064 19.3429 7.18934 19.0616C6.90804 18.7803 6.75 18.3988 6.75 18.001V7.50098H17.25Z" stroke="#8F90A6" stroke-linecap="round" stroke-linejoin="round"/>
<path d="M10.5 11.251V15.751" stroke="#8F90A6" stroke-linecap="round" stroke-linejoin="round"/>
<path d="M13.5 11.251V15.751" stroke="#8F90A6" stroke-linecap="round" stroke-linejoin="round"/>
</svg>
